<svg xmlns="http://www.w3.org/2000/svg" width="27.033" height="25.9" viewBox="0 0 27.033 25.9">
  <g id="phone" transform="translate(-1.05 -1.05)">
    <path id="Path_2" data-name="Path 2" d="M8.437,14.209a22.3,22.3,0,0,0,9.9,9.482l3.3-3.166a1.54,1.54,0,0,1,1.532-.345,17.817,17.817,0,0,0,5.362.82,1.476,1.476,0,0,1,1.5,1.439v5.022a1.476,1.476,0,0,1-1.5,1.439C14.429,28.9,3,17.95,3,4.439A1.476,1.476,0,0,1,4.5,3H9.758a1.476,1.476,0,0,1,1.5,1.439,15.722,15.722,0,0,0,.856,5.137,1.4,1.4,0,0,1-.375,1.468Z" transform="translate(-1.95 -1.95)" fill="#fcf9f9"/>
  </g>
</svg>
